<svg version="1.1" id="Layer_1" xmlns="http://www.w3.org/2000/svg" xmlns:xlink="http://www.w3.org/1999/xlink" x="0px" y="0px"
	 width="100%" viewBox="0 0 500 500" enable-background="new 0 0 500 500" xml:space="preserve">
<path fill="#000001" opacity="1.000000" stroke="none" 
	d="
M501.000000,278.000000 
	C501.000000,352.261169 501.000000,426.522369 501.000000,501.000000 
	C425.312592,501.000000 349.624939,501.000000 273.117615,500.782654 
	C271.689728,498.874115 271.477478,496.867065 270.416443,495.537231 
	C220.668167,433.187408 171.187592,370.617706 120.748001,308.831024 
	C110.510506,296.290466 104.632378,284.101593 106.752380,267.954163 
	C107.668259,260.978180 106.905899,253.781845 106.905899,246.224777 
	C109.201462,246.224777 110.834457,246.214462 112.467285,246.226425 
	C125.295998,246.320465 138.127045,246.620743 150.952850,246.470856 
	C173.028748,246.212875 194.862061,244.065048 215.643143,235.916489 
	C237.535202,227.332275 255.647827,214.096710 266.712219,192.723740 
	C272.097076,182.321838 275.391296,171.315155 275.013855,158.781143 
	C213.233124,158.781143 151.926636,158.781143 89.707886,158.781143 
	C99.850830,143.561157 109.511269,129.238419 118.943100,114.766708 
	C120.839523,111.856941 122.998665,111.081207 126.299744,111.088501 
	C171.785141,111.188889 217.270828,111.158218 262.756439,111.159668 
	C264.652405,111.159729 266.548370,111.159668 268.995850,111.159668 
	C258.594604,88.205635 240.976059,75.495323 218.358734,68.825310 
	C195.403397,62.055607 171.762024,61.472466 148.108139,61.223362 
	C128.952515,61.021633 109.793945,61.042385 90.637291,61.118820 
	C89.219269,61.124474 87.563080,62.098713 86.426483,63.091000 
	C59.573105,86.534943 38.624310,114.415291 23.781252,146.848557 
	C12.963829,170.485489 5.920540,195.182846 2.888724,221.021545 
	C2.765262,222.073746 1.652066,223.009811 0.999997,224.000000 
	C1.000000,149.739624 1.000000,75.479248 1.000000,1.000000 
	C75.020752,1.000000 149.041718,1.000000 223.881531,1.323418 
	C223.675674,2.061829 222.686035,2.654488 221.620911,2.864761 
	C208.818588,5.392133 196.005096,7.862882 182.899567,10.308487 
	C182.072342,10.517655 181.540100,10.766749 180.787445,11.057970 
	C180.567062,11.100097 180.124619,11.174990 179.776428,11.122992 
	C178.346878,11.473248 177.265503,11.875503 175.470291,12.543292 
	C176.809708,13.244512 177.434265,13.571486 178.460419,13.818956 
	C180.504639,13.624263 182.147171,13.410533 183.789978,13.408229 
	C230.525681,13.342671 277.261414,13.298386 324.227112,13.430557 
	C325.418030,13.610476 326.378937,13.610476 327.339874,13.610476 
	C327.368286,13.258984 327.396667,12.907492 327.425079,12.555999 
	C325.580688,12.091636 323.736298,11.627272 321.511108,11.096209 
	C307.554077,8.310154 293.972717,5.615936 280.413544,2.814149 
	C279.522125,2.629953 278.800568,1.623815 278.000000,1.000001 
	C352.260529,1.000000 426.521057,1.000000 501.000000,1.000000 
	C501.000000,75.354088 501.000000,149.708389 500.648773,224.816681 
	C498.973297,218.078186 497.786774,210.558273 496.302399,203.097641 
	C486.832611,155.501190 465.489777,113.970978 432.040649,78.819527 
	C423.938843,70.305382 414.925446,62.658661 405.584869,53.914345 
	C403.420715,61.597847 398.295502,61.285038 392.957336,61.252682 
	C370.297546,61.115341 347.636414,61.195412 324.975769,61.196049 
	C323.214630,61.196098 321.453461,61.196056 318.444611,61.196056 
	C331.283295,76.290878 338.315125,92.938553 342.377716,111.269531 
	C372.571167,111.269531 402.296478,111.269531 432.675446,111.269531 
	C431.592896,113.183189 430.958893,114.487175 430.162689,115.683212 
	C421.303467,128.990952 412.347534,142.235184 403.604401,155.618500 
	C401.934418,158.174744 400.131104,159.085983 397.123383,159.060623 
	C380.962189,158.924347 364.799255,159.000198 348.636902,159.002716 
	C346.859222,159.003006 345.081543,159.002762 343.242676,159.002762 
	C340.000427,180.196930 332.826508,199.244446 320.307953,215.951630 
	C292.114197,253.578888 252.709518,271.819336 207.754501,280.089294 
	C199.548416,281.598907 191.191971,282.291199 182.365860,283.430328 
	C183.534470,284.945190 184.222137,285.865051 184.938889,286.761658 
	C236.412216,351.152252 287.912933,415.521027 339.288269,479.989716 
	C341.820618,483.167450 343.919830,483.250549 347.290558,481.760681 
	C371.500916,471.059357 394.056091,457.705780 414.117676,440.348633 
	C445.166901,413.484894 468.402435,381.040222 483.431152,342.784576 
	C491.259430,322.857605 496.557800,302.289612 499.107727,281.014557 
	C499.235382,279.949402 500.346680,279.002167 501.000000,278.000000 
z"/>
<path fill="#5271FD" opacity="1.000000" stroke="none" 
	d="
M501.000000,277.531342 
	C500.346680,279.002167 499.235382,279.949402 499.107727,281.014557 
	C496.557800,302.289612 491.259430,322.857605 483.431152,342.784576 
	C468.402435,381.040222 445.166901,413.484894 414.117676,440.348633 
	C394.056091,457.705780 371.500916,471.059357 347.290558,481.760681 
	C343.919830,483.250549 341.820618,483.167450 339.288269,479.989716 
	C287.912933,415.521027 236.412216,351.152252 184.938889,286.761658 
	C184.222137,285.865051 183.534470,284.945190 182.365860,283.430328 
	C191.191971,282.291199 199.548416,281.598907 207.754501,280.089294 
	C252.709518,271.819336 292.114197,253.578888 320.307953,215.951630 
	C332.826508,199.244446 340.000427,180.196930 343.242676,159.002762 
	C345.081543,159.002762 346.859222,159.003006 348.636902,159.002716 
	C364.799255,159.000198 380.962189,158.924347 397.123383,159.060623 
	C400.131104,159.085983 401.934418,158.174744 403.604401,155.618500 
	C412.347534,142.235184 421.303467,128.990952 430.162689,115.683212 
	C430.958893,114.487175 431.592896,113.183189 432.675446,111.269531 
	C402.296478,111.269531 372.571167,111.269531 342.377716,111.269531 
	C338.315125,92.938553 331.283295,76.290878 318.444611,61.196056 
	C321.453461,61.196056 323.214630,61.196098 324.975769,61.196049 
	C347.636414,61.195412 370.297546,61.115341 392.957336,61.252682 
	C398.295502,61.285038 403.420715,61.597847 405.584869,53.914345 
	C414.925446,62.658661 423.938843,70.305382 432.040649,78.819527 
	C465.489777,113.970978 486.832611,155.501190 496.302399,203.097641 
	C497.786774,210.558273 498.973297,218.078186 500.648773,225.285339 
	C501.000000,242.354233 501.000000,259.708466 501.000000,277.531342 
z"/>
<path fill="#5271FD" opacity="1.000000" stroke="none" 
	d="
M0.999997,224.468658 
	C1.652066,223.009811 2.765262,222.073746 2.888724,221.021545 
	C5.920540,195.182846 12.963829,170.485489 23.781252,146.848557 
	C38.624310,114.415291 59.573105,86.534943 86.426483,63.091000 
	C87.563080,62.098713 89.219269,61.124474 90.637291,61.118820 
	C109.793945,61.042385 128.952515,61.021633 148.108139,61.223362 
	C171.762024,61.472466 195.403397,62.055607 218.358734,68.825310 
	C240.976059,75.495323 258.594604,88.205635 268.995850,111.159668 
	C266.548370,111.159668 264.652405,111.159729 262.756439,111.159668 
	C217.270828,111.158218 171.785141,111.188889 126.299744,111.088501 
	C122.998665,111.081207 120.839523,111.856941 118.943100,114.766708 
	C109.511269,129.238419 99.850830,143.561157 89.707886,158.781143 
	C151.926636,158.781143 213.233124,158.781143 275.013855,158.781143 
	C275.391296,171.315155 272.097076,182.321838 266.712219,192.723740 
	C255.647827,214.096710 237.535202,227.332275 215.643143,235.916489 
	C194.862061,244.065048 173.028748,246.212875 150.952850,246.470856 
	C138.127045,246.620743 125.295998,246.320465 112.467285,246.226425 
	C110.834457,246.214462 109.201462,246.224777 106.905899,246.224777 
	C106.905899,253.781845 107.668259,260.978180 106.752380,267.954163 
	C104.632378,284.101593 110.510506,296.290466 120.748001,308.831024 
	C171.187592,370.617706 220.668167,433.187408 270.416443,495.537231 
	C271.477478,496.867065 271.689728,498.874115 272.648926,500.782654 
	C257.312439,501.000000 241.624878,501.000000 225.771606,500.655273 
	C224.209869,499.893646 222.839203,499.255463 221.414093,499.091980 
	C174.921631,493.758789 133.462051,476.090942 96.686935,447.481537 
	C60.808842,419.569946 34.683575,384.229645 18.196535,341.811584 
	C10.565485,322.178314 5.368899,301.948608 2.878151,281.019592 
	C2.751293,279.953644 1.648436,279.003876 0.999999,278.000000 
	C1.000000,260.312439 1.000000,242.624878 0.999997,224.468658 
z"/>
<path fill="#000001" opacity="1.000000" stroke="none" 
	d="
M0.999999,278.468658 
	C1.648436,279.003876 2.751293,279.953644 2.878151,281.019592 
	C5.368899,301.948608 10.565485,322.178314 18.196535,341.811584 
	C34.683575,384.229645 60.808842,419.569946 96.686935,447.481537 
	C133.462051,476.090942 174.921631,493.758789 221.414093,499.091980 
	C222.839203,499.255463 224.209869,499.893646 225.302948,500.655273 
	C150.406464,501.000000 75.812927,501.000000 1.000000,501.000000 
	C1.000000,426.979248 1.000000,352.958282 0.999999,278.468658 
z"/>
<path fill="#5370F4" opacity="1.000000" stroke="none" 
	d="
M277.531342,1.000001 
	C278.800568,1.623815 279.522125,2.629953 280.413544,2.814149 
	C293.972717,5.615936 307.554077,8.310154 321.708923,11.323200 
	C322.857391,12.161473 323.427277,12.706056 323.997131,13.250637 
	C277.261414,13.298386 230.525681,13.342671 183.789978,13.408229 
	C182.147171,13.410533 180.504639,13.624263 178.452332,13.515996 
	C178.736649,12.586689 179.430634,11.880839 180.124619,11.174990 
	C180.124619,11.174990 180.567062,11.100097 181.089539,11.112803 
	C182.139511,10.866475 182.667007,10.607442 183.194519,10.348410 
	C196.005096,7.862882 208.818588,5.392133 221.620911,2.864761 
	C222.686035,2.654488 223.675674,2.061829 224.350189,1.323418 
	C241.687561,1.000000 259.375122,1.000000 277.531342,1.000001 
z"/>
<path fill="#2C3976" opacity="1.000000" stroke="none" 
	d="
M324.227112,13.430557 
	C323.427277,12.706056 322.857391,12.161473 322.089722,11.389899 
	C323.736298,11.627272 325.580688,12.091636 327.425079,12.555999 
	C327.396667,12.907492 327.368286,13.258984 327.339874,13.610476 
	C326.378937,13.610476 325.418030,13.610476 324.227112,13.430557 
z"/>
<path fill="#2C3976" opacity="1.000000" stroke="none" 
	d="
M179.776428,11.122991 
	C179.430634,11.880839 178.736649,12.586689 178.050751,13.595499 
	C177.434265,13.571486 176.809708,13.244512 175.470291,12.543292 
	C177.265503,11.875503 178.346878,11.473248 179.776428,11.122991 
z"/>
<path fill="#2C3976" opacity="1.000000" stroke="none" 
	d="
M182.899567,10.308485 
	C182.667007,10.607442 182.139511,10.866475 181.309921,11.070676 
	C181.540100,10.766749 182.072342,10.517655 182.899567,10.308485 
z"/>
</svg>